<!DOCTYPE svg PUBLIC "-//W3C//DTD SVG 1.1//EN" "http://www.w3.org/Graphics/SVG/1.1/DTD/svg11.dtd">
<!-- Uploaded to: SVG Repo, www.svgrepo.com, Transformed by: SVG Repo Mixer Tools -->
<svg height="100px" width="100px" version="1.1" id="Layer_1" xmlns="http://www.w3.org/2000/svg" xmlns:xlink="http://www.w3.org/1999/xlink" viewBox="0 0 511.989 511.989" xml:space="preserve" fill="#000000">
<g id="SVGRepo_bgCarrier" stroke-width="0"/>
<g id="SVGRepo_tracerCarrier" stroke-linecap="round" stroke-linejoin="round"/>
<g id="SVGRepo_iconCarrier"> <path style="fill:#A0D468;" d="M460.209,386.366l-1.812-0.531c-26.468-7.109-35.42-13.938-47.201-18.422 c-41.812-15.922-52.672-27.406-55.453-32.828c-0.109-0.188-0.188-0.406-0.281-0.594l-0.344-48.546l-99.124-1.125l-99.123,1.125 l-0.344,48.546c-0.094,0.188-0.172,0.406-0.281,0.594c-2.781,5.422-13.641,16.906-55.452,32.828 c-11.781,4.484-20.734,11.312-47.203,18.422l-1.812,0.531c-24.093,7.953-40.312,30.296-40.312,55.514v70.109h244.527h244.527V441.88 C500.521,416.661,484.303,394.319,460.209,386.366z"/> <path style="fill:#EAC6BB;" d="M393.539,191.493c0,89.373-85.202,171.622-137.545,171.622s-137.545-82.249-137.545-171.622 c0-89.374,61.577-148.342,137.545-148.342S393.539,102.12,393.539,191.493z"/> <path style="fill:#FFCE54;" d="M341.086,28.403c-23.39-21.188-104.654-51.608-180.028,0 c-59.436,40.718-53.437,143.388-53.437,143.388s77.999,19.703,167.326-31.343c57.749-32.984,77.873,0.562,88.232,29.78 c10.062,28.453,30.359,21.266,30.359,21.266S415.945,96.167,341.086,28.403z"/> <path style="fill:#F6BB42;" d="M316.509,126.823c8.109-0.062,14.906,1.953,20.624,5.375c10.781-41.812,31.906-52.827,40.859-55.671 c-3.141-6.219-6.781-12.438-11-18.594C351.976,64.199,328.29,81.152,316.509,126.823z"/> <path style="fill:#FFCE54;" d="M358.523,212.057c-16.578,0.5-24.53,17.687-24.53,17.687c14.999-4.594,28.39,6.172,11.124,15.484 c-34.265,18.5-60.201-49.608-89.123-16.672c-28.922-32.937-54.858,35.172-89.124,16.672c-17.265-9.312-3.875-20.078,11.125-15.484 c0,0-7.953-17.187-24.53-17.687c-21.703-0.656-70.155,77.982,44.358,88.514c21.874,2,45.062-7.078,58.171-21.453 c13.109,14.375,36.297,23.453,58.171,21.453C428.679,290.039,380.226,211.4,358.523,212.057z"/> </g>
</svg>