<!DOCTYPE svg PUBLIC "-//W3C//DTD SVG 1.1//EN" "http://www.w3.org/Graphics/SVG/1.1/DTD/svg11.dtd">
<!-- Uploaded to: SVG Repo, www.svgrepo.com, Transformed by: SVG Repo Mixer Tools -->
<svg height="100px" width="100px" version="1.1" id="Layer_1" xmlns="http://www.w3.org/2000/svg" xmlns:xlink="http://www.w3.org/1999/xlink" viewBox="0 0 511.982 511.982" xml:space="preserve" fill="#000000">
<g id="SVGRepo_bgCarrier" stroke-width="0"/>
<g id="SVGRepo_tracerCarrier" stroke-linecap="round" stroke-linejoin="round"/>
<g id="SVGRepo_iconCarrier"> <path style="fill:#5D9CEC;" d="M460.362,386.265l-1.828-0.531c-26.483-7.109-35.436-13.953-47.232-18.438 c-41.828-15.938-52.719-27.422-55.5-32.844c-0.094-0.188-0.172-0.406-0.266-0.609l-0.344-48.577l-99.201-1.125l-99.201,1.125 l-0.344,48.577c-0.094,0.203-0.172,0.422-0.266,0.609c-2.781,5.422-13.672,16.906-55.499,32.844 c-11.797,4.484-20.75,11.328-47.234,18.438l-1.828,0.531c-24.108,7.969-40.327,30.327-40.327,55.561v70.156h244.699H500.69v-70.156 C500.69,416.593,484.471,394.234,460.362,386.265z"/> <path style="fill:#EAC6BB;" d="M393.645,191.628c0,89.436-85.265,171.747-137.654,171.747s-137.654-82.312-137.654-171.747 c0-89.437,61.64-148.451,137.654-148.451C332.021,43.177,393.645,102.191,393.645,191.628z"/> <path style="fill:#FC6E51;" d="M341.145,28.427c-23.405-21.203-104.732-51.655-180.153,0 c-59.482,40.734-53.483,143.482-53.483,143.482s78.062,19.719,167.451-31.359c57.796-33.015,77.936,0.562,88.295,29.796 c10.078,28.468,30.391,21.281,30.391,21.281S416.052,96.238,341.145,28.427z"/> <g> <path style="fill:#E9573F;" d="M312.287,127.113c8.328-0.75,15.344,0.547,21.328,3.297c11.78-36.875,34.218-48.171,45.577-51.593 c-3.062-6.297-6.641-12.594-10.781-18.828c-4.484,1.703-9.609,4.125-14.984,7.609C339.864,76.364,322.162,93.723,312.287,127.113z"/> <path style="fill:#E9573F;" d="M170.492,272.204c-5.344,10.359-9.047,20.719-9.047,29.562c0,31.499,75.14,82.421,94.546,82.733 c19.406-0.312,94.545-51.234,94.545-82.733c0-9.031-3.875-19.656-9.406-30.234C327.334,245.111,184.211,245.564,170.492,272.204z"/> </g> <path style="fill:#FC6E51;" d="M358.598,211.971c-16.594,0.5-24.562,17.703-24.562,17.703c15.015-4.609,28.421,6.172,11.155,15.484 c-34.296,18.516-60.264-49.64-89.201-16.672c-28.938-32.968-54.905,35.188-89.187,16.672c-17.28-9.312-3.875-20.094,11.141-15.484 c0,0-7.969-17.203-24.562-17.703c-21.719-0.672-70.202,78.03,44.405,88.577c21.874,2,45.093-7.078,58.202-21.469 c13.109,14.391,36.328,23.469,58.218,21.469C428.801,290.001,380.317,211.299,358.598,211.971z"/> </g>
</svg>