<!DOCTYPE svg PUBLIC "-//W3C//DTD SVG 1.1//EN" "http://www.w3.org/Graphics/SVG/1.1/DTD/svg11.dtd">
<!-- Uploaded to: SVG Repo, www.svgrepo.com, Transformed by: SVG Repo Mixer Tools -->
<svg height="100px" width="100px" version="1.1" id="Layer_1" xmlns="http://www.w3.org/2000/svg" xmlns:xlink="http://www.w3.org/1999/xlink" viewBox="0 0 511.986 511.986" xml:space="preserve" fill="#000000">
<g id="SVGRepo_bgCarrier" stroke-width="0"/>
<g id="SVGRepo_tracerCarrier" stroke-linecap="round" stroke-linejoin="round"/>
<g id="SVGRepo_iconCarrier"> <path style="fill:#4FC2E9;" d="M460.224,386.348l-1.828-0.531c-26.468-7.109-35.42-13.938-47.201-18.422 c-41.797-15.922-52.672-27.391-55.453-32.812c-0.109-0.203-0.188-0.406-0.266-0.609l-0.344-48.546l-99.138-1.125l-99.139,1.125 l-0.344,48.546c-0.078,0.203-0.156,0.406-0.266,0.609c-2.781,5.422-13.656,16.891-55.452,32.812 c-11.781,4.484-20.734,11.312-47.203,18.422l-1.828,0.531c-24.093,7.969-40.296,30.312-40.296,55.529v70.109h244.528h244.527 v-70.109C500.521,416.66,484.318,394.317,460.224,386.348z"/> <path style="fill:#EAC6BB;" d="M393.555,191.023c0,89.373-85.202,171.622-137.561,171.622c-52.343,0-137.561-82.249-137.561-171.622 c0-89.374,61.593-148.342,137.561-148.342S393.555,101.649,393.555,191.023z"/> <g> <path style="fill:#656D78;" d="M103.59,146.664h0.016C103.59,146.664,103.574,146.664,103.59,146.664z"/> <path style="fill:#656D78;" d="M393.555,189.961c-3.891-93.515-5.141-119.467-55.531-159.544 c-82.029-65.249-208.59-5.219-208.59-5.219l22.859,16.015c0,0-83.655,55.233-62.64,193.45 c2.578,16.984,117.951-115.342,240.668-108.139L393.555,189.961z"/> </g> </g>
</svg>