<!DOCTYPE svg PUBLIC "-//W3C//DTD SVG 1.1//EN" "http://www.w3.org/Graphics/SVG/1.1/DTD/svg11.dtd">
<!-- Uploaded to: SVG Repo, www.svgrepo.com, Transformed by: SVG Repo Mixer Tools -->
<svg height="100px" width="100px" version="1.1" id="Layer_1" xmlns="http://www.w3.org/2000/svg" xmlns:xlink="http://www.w3.org/1999/xlink" viewBox="0 0 511.995 511.995" xml:space="preserve" fill="#000000">
<g id="SVGRepo_bgCarrier" stroke-width="0"/>
<g id="SVGRepo_tracerCarrier" stroke-linecap="round" stroke-linejoin="round"/>
<g id="SVGRepo_iconCarrier"> <path style="fill:#5D9CEC;" d="M460.209,386.357l-1.812-0.531c-26.468-7.094-35.436-13.922-47.217-18.406 c-41.781-15.938-52.656-27.406-55.438-32.828c-0.109-0.203-0.188-0.406-0.281-0.609l-0.344-48.546l-99.123-1.125l-99.131,1.125 l-0.344,48.546c-0.086,0.203-0.164,0.406-0.266,0.609c-2.781,5.422-13.656,16.891-55.452,32.828 c-11.781,4.484-20.734,11.312-47.211,18.406l-1.812,0.531c-24.093,7.969-40.304,30.312-40.304,55.529v70.109h244.52h244.527v-70.109 C500.521,416.669,484.303,394.326,460.209,386.357z"/> <path style="fill:#EAC6BB;" d="M393.555,191.485c0,89.374-85.218,171.623-137.561,171.623c-52.351,0-137.553-82.249-137.553-171.623 S180.026,43.159,255.994,43.159S393.555,102.111,393.555,191.485z"/> <path style="fill:#965353;" d="M341.086,28.409c-23.39-21.187-104.654-51.624-180.021,0 c-59.436,40.718-53.437,143.373-53.437,143.373s77.991,19.703,167.334-31.328c57.749-33,77.873,0.562,88.217,29.781 c10.062,28.437,30.375,21.25,30.375,21.25S415.93,96.173,341.086,28.409z"/> <path style="fill:#7F4242;" d="M315.274,126.83c8.156-0.25,15.016,1.547,20.812,4.75c11.093-40.25,32.937-51.077,42.468-53.937 c-3.109-6.25-6.719-12.516-10.906-18.719C352.055,65.065,327.399,81.752,315.274,126.83z"/> </g>
</svg>