<!DOCTYPE svg PUBLIC "-//W3C//DTD SVG 1.1//EN" "http://www.w3.org/Graphics/SVG/1.1/DTD/svg11.dtd">
<!-- Uploaded to: SVG Repo, www.svgrepo.com, Transformed by: SVG Repo Mixer Tools -->
<svg height="100px" width="100px" version="1.1" id="Layer_1" xmlns="http://www.w3.org/2000/svg" xmlns:xlink="http://www.w3.org/1999/xlink" viewBox="0 0 511.989 511.989" xml:space="preserve" fill="#000000">
<g id="SVGRepo_bgCarrier" stroke-width="0"/>
<g id="SVGRepo_tracerCarrier" stroke-linecap="round" stroke-linejoin="round"/>
<g id="SVGRepo_iconCarrier"> <path style="fill:#965353;" d="M418.931,395.65H93.06C93.06,395.65,8.14,0,255.995,0C503.85,0,418.931,395.65,418.931,395.65z"/> <path style="fill:#EC87C0;" d="M438.883,386.353l-1.812-0.531c-26.468-7.094-35.421-13.938-47.202-18.406 c-41.812-15.938-52.688-27.406-55.468-32.828c-0.094-0.203-0.172-0.406-0.25-0.609l-0.359-48.545l-77.797-1.126l-77.795,1.125 l-0.344,48.545c-0.078,0.203-0.172,0.406-0.266,0.609c-2.781,5.422-13.656,16.891-55.452,32.828 c-11.781,4.469-20.734,11.312-47.203,18.406l-1.812,0.531c-24.094,7.969-40.312,30.312-40.312,55.528v70.109h223.184h223.184V441.88 C479.178,416.665,462.975,394.322,438.883,386.353z"/> <path style="fill:#EAC6BB;" d="M393.556,191.044c0,89.373-85.218,171.622-137.561,171.622s-137.56-82.249-137.56-171.622 c0-89.374,61.593-148.342,137.56-148.342C331.962,42.702,393.556,101.67,393.556,191.044z"/> <polygon style="fill:#965353;" points="371.962,85.327 297.432,39.108 196.996,37.328 135.215,92.889 109.872,170.669 400.806,170.669 "/> <path style="fill:#7F4242;" d="M393.556,159.997h-19.422v-10.671c0-5.891-4.78-10.656-10.672-10.656 c-5.891,0-10.656,4.765-10.656,10.656v10.671h-21.343v-10.671c0-5.891-4.78-10.656-10.655-10.656 c-5.906,0-10.673,4.765-10.673,10.656v10.671h-21.327v-10.671c0-5.891-4.78-10.656-10.672-10.656 c-5.891,0-10.672,4.765-10.672,10.656v10.671h-21.328v-10.671c0-5.891-4.781-10.656-10.672-10.656 c-5.891,0-10.656,4.765-10.656,10.656v10.671h-21.343v-10.671c0-5.891-4.781-10.656-10.656-10.656 c-5.906,0-10.671,4.765-10.671,10.656v10.671h-21.328v-10.671c0-5.891-4.781-10.656-10.672-10.656s-10.672,4.765-10.672,10.656 v10.671h-21.015c-5.891,0-10.672,4.781-10.672,10.672c0,5.891,4.781,10.656,10.672,10.656h275.104 c5.875,0,10.656-4.766,10.656-10.656C404.212,164.779,399.431,159.997,393.556,159.997z"/> </g>
</svg>