<!DOCTYPE svg PUBLIC "-//W3C//DTD SVG 1.1//EN" "http://www.w3.org/Graphics/SVG/1.1/DTD/svg11.dtd">
<!-- Uploaded to: SVG Repo, www.svgrepo.com, Transformed by: SVG Repo Mixer Tools -->
<svg height="100px" width="100px" version="1.1" id="Layer_1" xmlns="http://www.w3.org/2000/svg" xmlns:xlink="http://www.w3.org/1999/xlink" viewBox="0 0 511.991 511.991" xml:space="preserve" fill="#000000">
<g id="SVGRepo_bgCarrier" stroke-width="0"/>
<g id="SVGRepo_tracerCarrier" stroke-linecap="round" stroke-linejoin="round"/>
<g id="SVGRepo_iconCarrier"> <path style="fill:#A0D468;" d="M438.905,386.353l-1.844-0.531c-26.468-7.109-35.405-13.938-47.187-18.422 c-41.812-15.922-52.688-27.391-55.468-32.812c-0.094-0.203-0.156-0.406-0.25-0.609l-0.344-48.546l-77.804-1.125l-77.795,1.125 l-0.344,48.546c-0.094,0.203-0.172,0.406-0.266,0.609c-2.781,5.422-13.656,16.891-55.468,32.812 c-11.781,4.484-20.734,11.312-47.203,18.422l-1.812,0.531c-24.094,7.969-40.312,30.312-40.312,55.529v70.109h223.199h223.176 v-70.109C479.186,416.665,462.998,394.322,438.905,386.353z"/> <path style="fill:#EAC6BB;" d="M393.562,191.028c0,89.373-85.218,171.622-137.553,171.622c-52.358,0-137.56-82.249-137.56-171.622 c0-89.374,61.593-148.342,137.56-148.342C331.97,42.686,393.562,101.654,393.562,191.028z"/> <path style="fill:#ED5564;" d="M417,117.092c-7.969-28.734-21.312-54.187-38.594-73.624c-19-21.343-42.28-34.765-67.374-38.812 C291.939,1.562,274.002,0,257.76,0c-66.343,0-86.842,25.546-88.967,28.453l-1.859,2.562l-5.406,100.889l13.141-2.203 c15.671-2.641,30.578-3.984,44.281-3.984c42.78,0,75.835,12.953,98.303,38.483c44.624,50.765,34.249,135.639,34.124,136.482 l-3.562,27.312l21.031-17.78c25.906-21.906,43.812-52.905,51.75-89.624C427.686,187.716,426.405,150.951,417,117.092z"/> <path style="fill:#DA4453;" d="M174.355,22.297c-0.891,0.391-22.375,9.906-43.921,30.046c-28.968,27.094-44.281,60.64-44.281,96.983 c0,88.811,31.375,138.31,32.703,140.373l19.343,29.874l0.281-35.593c0.484-62.655,14.531-102.467,26.234-124.826 c12.219-23.374,21.906-30.765,22.641-31.327L174.355,22.297z"/> </g>
</svg>