<!DOCTYPE svg PUBLIC "-//W3C//DTD SVG 1.1//EN" "http://www.w3.org/Graphics/SVG/1.1/DTD/svg11.dtd">
<!-- Uploaded to: SVG Repo, www.svgrepo.com, Transformed by: SVG Repo Mixer Tools -->
<svg height="100px" width="100px" version="1.1" id="Layer_1" xmlns="http://www.w3.org/2000/svg" xmlns:xlink="http://www.w3.org/1999/xlink" viewBox="0 0 511.991 511.991" xml:space="preserve" fill="#000000">
<g id="SVGRepo_bgCarrier" stroke-width="0"/>
<g id="SVGRepo_tracerCarrier" stroke-linecap="round" stroke-linejoin="round"/>
<g id="SVGRepo_iconCarrier"> <path style="fill:#343A42;" d="M454.057,310.683c-22.749-19.125-27.187-63.39-31.842-110.28 c-4.625-46.358-9.438-94.295-31.25-132.794C365.278,22.297,321.123,0.187,255.96,0c-65.108,0.188-109.248,22.297-134.951,67.608 C99.197,106.107,94.4,154.044,89.791,200.402c-4.688,46.859-9.094,91.155-31.843,110.28l-9.25,7.765l8.859,8.234 c1.188,1.078,12.406,10.953,42.609,20.469c39.249,12.344,91.686,18.609,155.825,18.609l0,0c64.132,0,116.568-6.266,155.818-18.609 c30.187-9.516,41.437-19.391,42.623-20.469l8.875-8.234L454.057,310.683z"/> <path style="fill:#4FC2E9;" d="M438.871,386.353l-1.812-0.516c-26.468-7.109-35.405-13.938-47.218-18.406 c-41.781-15.938-52.656-27.422-55.437-32.844c-0.094-0.188-0.188-0.391-0.281-0.594l-0.344-48.546l-77.788-1.141l-77.795,1.141 l-0.344,48.546c-0.094,0.203-0.156,0.406-0.266,0.594c-2.781,5.422-13.672,16.906-55.452,32.844 c-11.781,4.469-20.734,11.297-47.218,18.406l-1.812,0.516c-24.094,7.984-40.296,30.327-40.296,55.529v70.109h223.184h223.191 v-70.109C479.183,416.681,462.964,394.338,438.871,386.353z"/> <path style="fill:#EAC6BB;" d="M393.559,191.044c0,89.389-85.218,171.638-137.568,171.638c-52.343,0-137.544-82.249-137.544-171.638 c0-89.39,61.593-148.342,137.544-148.342C331.967,42.702,393.559,101.654,393.559,191.044z"/> <path style="fill:#434A54;" d="M281.999,80.655c0.188,0.156,17.156,15.25,43.655,30.437c21.655,12.422,53.905,27.25,89.437,31.109 c-4.5-26.609-11.438-52.202-24.125-74.592C365.278,22.297,321.123,0.187,255.96,0C190.851,0.187,281.999,80.655,281.999,80.655z"/> <path style="fill:#656D78;" d="M188.899,181.513c31.546-15.969,63.108-38.203,93.85-66.03c37.78-34.218,64.654-68.077,77.092-84.842 C334.217,10.204,299.874,0.11,255.96,0.001c-65.108,0.188-109.248,22.297-134.951,67.608 C99.197,106.108,94.4,154.045,89.791,200.403c-0.375,3.609-0.734,7.203-1.094,10.781 C121.697,208.45,155.337,198.512,188.899,181.513z"/> </g>
</svg>