<!DOCTYPE svg PUBLIC "-//W3C//DTD SVG 1.1//EN" "http://www.w3.org/Graphics/SVG/1.1/DTD/svg11.dtd">
<!-- Uploaded to: SVG Repo, www.svgrepo.com, Transformed by: SVG Repo Mixer Tools -->
<svg height="100px" width="100px" version="1.1" id="Layer_1" xmlns="http://www.w3.org/2000/svg" xmlns:xlink="http://www.w3.org/1999/xlink" viewBox="0 0 511.991 511.991" xml:space="preserve" fill="#000000">
<g id="SVGRepo_bgCarrier" stroke-width="0"/>
<g id="SVGRepo_tracerCarrier" stroke-linecap="round" stroke-linejoin="round"/>
<g id="SVGRepo_iconCarrier"> <path style="fill:#E2A437;" d="M418.935,395.65H93.058c0,0-84.92-395.65,162.935-395.65C503.84,0,418.935,395.65,418.935,395.65z"/> <path style="fill:#AC92EB;" d="M438.872,386.353l-1.812-0.531c-26.468-7.094-35.405-13.938-47.187-18.406 c-41.812-15.938-52.688-27.406-55.468-32.828c-0.094-0.203-0.188-0.406-0.281-0.609l-0.344-48.546l-77.788-1.125l-77.795,1.125 l-0.344,48.546c-0.094,0.203-0.172,0.406-0.266,0.609c-2.781,5.422-13.656,16.891-55.452,32.828 c-11.781,4.469-20.734,11.312-47.203,18.406l-1.812,0.531c-24.094,7.969-40.312,30.312-40.312,55.529v70.109h223.184h223.191 v-70.109C479.184,416.665,462.965,394.322,438.872,386.353z"/> <path style="fill:#EAC6BB;" d="M393.56,191.044c0,89.373-85.218,171.622-137.568,171.622c-52.343,0-137.544-82.249-137.544-171.622 c0-89.374,61.577-148.342,137.544-148.342C331.968,42.702,393.56,101.67,393.56,191.044z"/> <path style="fill:#F6BB42;" d="M287.156,84.983l141.341,96.483C415.904,88.295,373.092,0,255.992,0L287.156,84.983z"/> <path style="fill:#FFCE54;" d="M266.023,126.435c45.663-32.828,84.975-65.124,105.193-82.202C344.685,17.125,307.53,0,255.992,0 C119.26,0,83.807,120.42,79.495,228.387C126.916,215.637,189.478,181.45,266.023,126.435z"/> </g>
</svg>