<!DOCTYPE svg PUBLIC "-//W3C//DTD SVG 1.1//EN" "http://www.w3.org/Graphics/SVG/1.1/DTD/svg11.dtd">
<!-- Uploaded to: SVG Repo, www.svgrepo.com, Transformed by: SVG Repo Mixer Tools -->
<svg height="100px" width="100px" version="1.1" id="Layer_1" xmlns="http://www.w3.org/2000/svg" xmlns:xlink="http://www.w3.org/1999/xlink" viewBox="0 0 511.991 511.991" xml:space="preserve" fill="#000000">
<g id="SVGRepo_bgCarrier" stroke-width="0"/>
<g id="SVGRepo_tracerCarrier" stroke-linecap="round" stroke-linejoin="round"/>
<g id="SVGRepo_iconCarrier"> <path style="fill:#A0D468;" d="M438.905,386.353l-1.844-0.531c-26.468-7.109-35.405-13.938-47.187-18.406 c-41.812-15.938-52.688-27.406-55.468-32.828c-0.094-0.203-0.156-0.406-0.25-0.609l-0.344-48.546l-77.804-1.125l-77.795,1.125 l-0.344,48.546c-0.094,0.203-0.172,0.406-0.266,0.609c-2.781,5.422-13.656,16.891-55.468,32.828 c-11.781,4.469-20.734,11.297-47.203,18.406l-1.812,0.531c-24.094,7.969-40.312,30.312-40.312,55.529v70.109h223.199h223.176 v-70.109C479.186,416.665,462.998,394.322,438.905,386.353z"/> <path style="fill:#EAC6BB;" d="M393.562,191.028c0,89.373-85.218,171.622-137.553,171.622c-52.343,0-137.56-82.249-137.56-171.622 c0-89.374,61.593-148.342,137.56-148.342C331.97,42.686,393.562,101.654,393.562,191.028z"/> <path style="fill:#E9573F;" d="M397.969,50.233C363.781,5.812,304.408,5.312,301.908,5.312l-7.625,0.031l-44.805,129.202 l17.172-2.312c9.102-1.219,17.945-1.844,26.258-1.844c33.874,0,60.686,9.937,79.717,29.53 c14.125,14.531,18.656,29.406,18.812,29.891l10.531,37.796l10.031-37.968C427.843,129.795,423.125,82.889,397.969,50.233z"/> <path style="fill:#FC6E51;" d="M371.969,26.484C370.657,25.406,338.969,0,275.408,0c-22.32,0-46.117,3.156-70.726,9.406 c-32.609,8.266-58.327,26.328-76.483,53.671c-14.828,22.328-24.594,50.999-29.031,85.202c-7.578,58.358,2.078,120.764,8.531,152.779 l11.531,57.358l9.438-57.733c0.078-0.422,7.187-42.53,32.312-84.358c14.578-24.249,32.25-43.515,52.531-57.249 c25.187-17.062,54.671-25.702,87.679-25.702c10.03,0,20.53,0.797,31.249,2.375l8.749,1.297l36.531-105.858L371.969,26.484z"/> </g>
</svg>